<svg width="46" height="46" viewBox="0 0 46 46" fill="none" xmlns="http://www.w3.org/2000/svg">
<path d="M35.7702 18.7191C35.5858 18.492 35.3152 18.3611 35.0299 18.3611H32.3369L27.0482 10.8458C26.731 10.3947 26.124 10.2986 25.6922 10.6288C25.2602 10.9598 25.1674 11.5934 25.4843 12.0438L29.93 18.3612H15.8114L20.2571 12.0438C20.5743 11.593 20.4809 10.9598 20.0491 10.6288C19.6174 10.2982 19.0101 10.3954 18.6929 10.8458L13.4041 18.3612H10.9701C10.6849 18.3612 10.4142 18.4921 10.2299 18.7191C10.0456 18.9462 9.96633 19.2461 10.0132 19.5396L12.4386 34.7215C12.5165 35.2093 12.9214 35.5673 13.3955 35.5673H32.6045C33.0789 35.5673 33.4835 35.2097 33.5614 34.7215L35.9867 19.5396C36.0337 19.2464 35.9545 18.9461 35.7702 18.7191ZM31.7829 33.5431H14.2172L12.1153 20.3854H33.8848L31.7829 33.5431Z" fill="white"/>
<path d="M23.0004 22.7471C22.4646 22.7471 22.0303 23.2001 22.0303 23.7592V30.4055C22.0303 30.9646 22.4646 31.4176 23.0004 31.4176C23.5362 31.4176 23.9705 30.9649 23.9705 30.4055V23.7592C23.9705 23.2001 23.5362 22.7471 23.0004 22.7471Z" fill="white"/>
<path d="M28.0121 22.7471C27.4763 22.7471 27.042 23.2001 27.042 23.7592V30.4055C27.042 30.9646 27.4763 31.4176 28.0121 31.4176C28.548 31.4176 28.9823 30.9649 28.9823 30.4055V23.7592C28.9823 23.2001 28.548 22.7471 28.0121 22.7471Z" fill="white"/>
<path d="M17.9877 22.7471C17.4519 22.7471 17.0176 23.2001 17.0176 23.7592V30.4055C17.0176 30.9646 17.4519 31.4176 17.9877 31.4176C18.5236 31.4176 18.9578 30.9649 18.9578 30.4055V23.7592C18.9578 23.2001 18.5236 22.7471 17.9877 22.7471Z" fill="white"/>
</svg>
