<svg width="25" height="25" viewBox="0 0 25 25" fill="none" xmlns="http://www.w3.org/2000/svg">
<g clip-path="url(#clip0_1225_285)">
<path d="M12.5 2.99951C5.59158 2.99951 0 6.59014 0 13.4995C0 15.692 0.571823 16.8334 1.65768 18.722L0.0471115 23.7235C-0.0652314 24.0722 0.0270844 24.4544 0.286102 24.7134C0.542641 24.9699 0.92392 25.0657 1.27602 24.9524L6.27747 22.3418C8.16612 23.4277 10.3075 23.9995 12.5 23.9995C19.4084 23.9995 25 20.4089 25 13.4995C25 6.59109 19.4094 2.99951 12.5 2.99951ZM12.5 22.0464C10.5196 22.0464 8.58917 21.4938 6.91738 20.4484C6.67686 20.2981 6.37817 20.2575 6.10027 20.3469L2.48985 22.5097L3.65257 18.8992C3.74069 18.6253 3.7035 18.3263 3.55091 18.0821C2.50568 16.4103 1.95312 15.4799 1.95312 13.4995C1.95312 7.68401 6.68449 4.95264 12.5 4.95264C18.3155 4.95264 23.0469 7.68401 23.0469 13.4995C23.0469 19.315 18.3155 22.0464 12.5 22.0464ZM13.7207 12.4995C13.7207 13.1736 13.1742 13.7202 12.5 13.7202C11.8258 13.7202 11.2793 13.1736 11.2793 12.4995C11.2793 11.8253 11.8258 11.2788 12.5 11.2788C13.1742 11.2788 13.7207 11.8253 13.7207 12.4995ZM18.6035 12.4995C18.6035 13.1736 18.0571 13.7202 17.3828 13.7202C16.7086 13.7202 16.1621 13.1736 16.1621 12.4995C16.1621 11.8253 16.7086 11.2788 17.3828 11.2788C18.0571 11.2788 18.6035 11.8253 18.6035 12.4995ZM8.83789 12.4995C8.83789 13.1736 8.29144 13.7202 7.61719 13.7202C6.94313 13.7202 6.39648 13.1736 6.39648 12.4995C6.39648 11.8253 6.94313 11.2788 7.61719 11.2788C8.29144 11.2788 8.83789 11.8253 8.83789 12.4995Z" fill="#BCBCBC"/>
</g>
<defs>
<clipPath id="clip0_1225_285">
<rect width="25" height="25" fill="white" transform="translate(0 -0.000488281)"/>
</clipPath>
</defs>
</svg>
