<svg width="46" height="46" viewBox="0 0 46 46" fill="none" xmlns="http://www.w3.org/2000/svg">
<g clip-path="url(#clip0_932_275)">
<path d="M22.5 13.9995C15.5916 13.9995 10 17.5901 10 24.4995C10 26.692 10.5718 27.8334 11.6577 29.722L10.0471 34.7235C9.93477 35.0722 10.0271 35.4544 10.2861 35.7134C10.5426 35.9699 10.9239 36.0657 11.276 35.9524L16.2775 33.3418C18.1661 34.4277 20.3075 34.9995 22.5 34.9995C29.4084 34.9995 35 31.4089 35 24.4995C35 17.5911 29.4094 13.9995 22.5 13.9995ZM22.5 33.0464C20.5196 33.0464 18.5892 32.4938 16.9174 31.4484C16.6769 31.2981 16.3782 31.2575 16.1003 31.3469L12.4899 33.5097L13.6526 29.8992C13.7407 29.6253 13.7035 29.3263 13.5509 29.0821C12.5057 27.4103 11.9531 26.4799 11.9531 24.4995C11.9531 18.684 16.6845 15.9526 22.5 15.9526C28.3155 15.9526 33.0469 18.684 33.0469 24.4995C33.0469 30.315 28.3155 33.0464 22.5 33.0464ZM23.7207 23.4995C23.7207 24.1736 23.1742 24.7202 22.5 24.7202C21.8258 24.7202 21.2793 24.1736 21.2793 23.4995C21.2793 22.8253 21.8258 22.2788 22.5 22.2788C23.1742 22.2788 23.7207 22.8253 23.7207 23.4995ZM28.6035 23.4995C28.6035 24.1736 28.0571 24.7202 27.3828 24.7202C26.7086 24.7202 26.1621 24.1736 26.1621 23.4995C26.1621 22.8253 26.7086 22.2788 27.3828 22.2788C28.0571 22.2788 28.6035 22.8253 28.6035 23.4995ZM18.8379 23.4995C18.8379 24.1736 18.2914 24.7202 17.6172 24.7202C16.9431 24.7202 16.3965 24.1736 16.3965 23.4995C16.3965 22.8253 16.9431 22.2788 17.6172 22.2788C18.2914 22.2788 18.8379 22.8253 18.8379 23.4995Z" fill="#BCBCBC"/>
</g>
<defs>
<clipPath id="clip0_932_275">
<rect width="25" height="25" fill="white" transform="translate(10 10.9995)"/>
</clipPath>
</defs>
</svg>
