<svg width="46" height="46" viewBox="0 0 46 46" fill="none" xmlns="http://www.w3.org/2000/svg">
<path d="M29.5821 35.4917L22.8734 31.7807L16.1647 35.4917C15.8108 35.6895 15.3736 35.6634 15.0405 35.4344C14.7074 35.2002 14.5356 34.7994 14.6033 34.3987L15.8992 26.4615L10.424 20.8509C10.1482 20.5646 10.0545 20.1535 10.1794 19.7787C10.3043 19.404 10.6322 19.1281 11.0278 19.0709L18.5432 17.9206L21.9157 10.733C22.0875 10.3634 22.4622 10.124 22.8734 10.124C23.2845 10.124 23.6593 10.3634 23.8362 10.733L27.2088 17.9206L34.7242 19.0709C35.1198 19.1333 35.4424 19.404 35.5726 19.7787C35.6975 20.1535 35.6038 20.5698 35.3279 20.8509L29.8527 26.4615L31.1487 34.3987C31.2163 34.7994 31.0446 35.2002 30.7115 35.4344C30.5241 35.5593 30.1077 35.7623 29.5821 35.4917V35.4917ZM13.3802 20.8509L17.7885 25.3686C18.0227 25.608 18.1268 25.9463 18.0748 26.2742L17.0443 32.5823L22.3529 29.6468C22.6756 29.4698 23.0607 29.4698 23.3834 29.6468L28.6921 32.5823L27.6616 26.2742C27.6095 25.9411 27.7136 25.608 27.9478 25.3686L32.3561 20.8509L26.3136 19.9297C25.9649 19.8776 25.663 19.6538 25.5121 19.3311L22.8734 13.6788L20.2243 19.3259C20.0733 19.6434 19.7715 19.8724 19.4227 19.9245L13.3802 20.8509V20.8509Z" fill="#BCBCBC"/>
</svg>
