<svg width="18" height="15" viewBox="0 0 18 15" fill="none" xmlns="http://www.w3.org/2000/svg">
<path d="M1 0C0.447715 0 0 0.447715 0 1C0 1.55228 0.447715 2 1 2V0ZM17 2C17.5523 2 18 1.55228 18 1C18 0.447715 17.5523 0 17 0V2ZM1 13C0.447715 13 0 13.4477 0 14C0 14.5523 0.447715 15 1 15V13ZM17 15C17.5523 15 18 14.5523 18 14C18 13.4477 17.5523 13 17 13V15ZM1 4.33333C0.447715 4.33333 0 4.78105 0 5.33333C0 5.88562 0.447715 6.33333 1 6.33333V4.33333ZM17 6.33333C17.5523 6.33333 18 5.88562 18 5.33333C18 4.78105 17.5523 4.33333 17 4.33333V6.33333ZM1 8.66667C0.447715 8.66667 0 9.11438 0 9.66667C0 10.219 0.447715 10.6667 1 10.6667V8.66667ZM17 10.6667C17.5523 10.6667 18 10.219 18 9.66667C18 9.11438 17.5523 8.66667 17 8.66667V10.6667ZM1 2H17V0H1V2ZM1 15H17V13H1V15ZM1 6.33333H17V4.33333H1V6.33333ZM1 10.6667H17V8.66667H1V10.6667Z" fill="#00D093"/>
</svg>
