<svg width="40" height="36" viewBox="0 0 40 36" fill="none" xmlns="http://www.w3.org/2000/svg">
<path d="M34 18L33.1 19.2L34.1408 19.9806L35.0607 19.0607L34 18ZM29.9205 30.8123C30.5269 30.2478 30.5609 29.2987 29.9965 28.6923C29.4321 28.0859 28.4829 28.0519 27.8765 28.6163L29.9205 30.8123ZM39.0607 15.0607C39.6464 14.4749 39.6464 13.5251 39.0607 12.9393C38.4749 12.3536 37.5251 12.3536 36.9393 12.9393L39.0607 15.0607ZM30.3286 13.3714C29.6658 12.8744 28.7256 13.0087 28.2286 13.6714C27.7315 14.3342 27.8658 15.2744 28.5286 15.7714L30.3286 13.3714ZM18 32.5C9.99187 32.5 3.5 26.0081 3.5 18H0.5C0.5 27.665 8.33502 35.5 18 35.5L18 32.5ZM3.5 18C3.5 9.99187 9.99187 3.5 18 3.5V0.5C8.33502 0.5 0.5 8.33502 0.5 18H3.5ZM18 3.5C26.0081 3.5 32.5 9.99187 32.5 18H35.5C35.5 8.33502 27.665 0.5 18 0.5V3.5ZM27.8765 28.6163C25.2862 31.0273 21.8168 32.5 18 32.5L18 35.5C22.6048 35.5 26.797 33.7195 29.9205 30.8123L27.8765 28.6163ZM35.0607 19.0607L39.0607 15.0607L36.9393 12.9393L32.9393 16.9393L35.0607 19.0607ZM34.9 16.8L30.3286 13.3714L28.5286 15.7714L33.1 19.2L34.9 16.8Z" fill="#00D093"/>
</svg>
