<svg width="46" height="46" viewBox="0 0 46 46" fill="none" xmlns="http://www.w3.org/2000/svg">
<path d="M29.7061 35.6169L22.9974 31.906L16.2887 35.6169C15.9348 35.8147 15.4976 35.7887 15.1645 35.5597C14.8314 35.3255 14.6597 34.9247 14.7273 34.5239L16.0233 26.5868L10.5481 20.9761C10.2722 20.6899 10.1785 20.2787 10.3034 19.904C10.4283 19.5292 10.7562 19.2534 11.1518 19.1961L18.6672 18.0459L22.0398 10.8582C22.2115 10.4887 22.5862 10.2493 22.9974 10.2493C23.4086 10.2493 23.7833 10.4887 23.9603 10.8582L27.3328 18.0459L34.8482 19.1961C35.2438 19.2586 35.5665 19.5292 35.6966 19.904C35.8215 20.2787 35.7278 20.6951 35.452 20.9761L29.9767 26.5868L31.2727 34.5239C31.3403 34.9247 31.1686 35.3255 30.8355 35.5597C30.6481 35.6846 30.2318 35.8876 29.7061 35.6169ZM13.5043 20.9761L17.9125 25.4938C18.1467 25.7332 18.2508 26.0715 18.1988 26.3994L17.1683 32.7075L22.4769 29.7721C22.7996 29.5951 23.1848 29.5951 23.5075 29.7721L28.8161 32.7075L27.7856 26.3994C27.7336 26.0663 27.8377 25.7332 28.0719 25.4938L32.4801 20.9761L26.4376 20.0549C26.0889 20.0029 25.7871 19.779 25.6361 19.4564L22.9974 13.8041L20.3483 19.4512C20.1973 19.7686 19.8955 19.9976 19.5468 20.0497L13.5043 20.9761Z" fill="white"/>
</svg>
