<svg width="46" height="46" viewBox="0 0 46 46" fill="none" xmlns="http://www.w3.org/2000/svg">
<path d="M32.3928 14.0004C29.9388 11.439 26.5435 9.9935 22.9963 10C15.8277 9.99099 10.009 15.795 10 22.9636C9.99555 26.5082 11.4409 29.9004 14.0004 32.3526C14.0079 32.36 14.0107 32.3712 14.0181 32.3777C14.0932 32.4501 14.1749 32.5114 14.2511 32.581C14.4599 32.7667 14.6688 32.9588 14.8888 33.138C15.0067 33.2308 15.1292 33.3236 15.2499 33.409C15.4578 33.564 15.6658 33.719 15.8829 33.862C16.0306 33.9549 16.1828 34.0477 16.3341 34.1405C16.5345 34.2612 16.7342 34.3828 16.9412 34.4932C17.1166 34.5861 17.2957 34.6659 17.474 34.7503C17.6689 34.8432 17.8611 34.936 18.0606 35.0195C18.2602 35.1031 18.4607 35.1681 18.6631 35.2405C18.8654 35.3128 19.0399 35.3797 19.234 35.4391C19.453 35.505 19.6777 35.556 19.9005 35.6108C20.0861 35.6563 20.2662 35.7083 20.4574 35.7454C20.7136 35.7965 20.9735 35.829 21.2335 35.8643C21.3941 35.8866 21.5509 35.9181 21.7133 35.9339C22.1385 35.9757 22.5673 35.9989 22.9999 35.9989C23.4325 35.9989 23.8613 35.9757 24.2865 35.9339C24.4489 35.9181 24.6058 35.8866 24.7663 35.8643C25.0263 35.829 25.2862 35.7965 25.5424 35.7454C25.728 35.7083 25.9137 35.6526 26.0993 35.6108C26.3221 35.556 26.5468 35.505 26.7658 35.4391C26.9599 35.3797 27.1473 35.3073 27.3367 35.2405C27.5261 35.1736 27.7415 35.1012 27.9392 35.0195C28.1369 34.9378 28.3309 34.8422 28.5258 34.7503C28.7041 34.6659 28.8832 34.586 29.0586 34.4932C29.2656 34.3828 29.4652 34.2612 29.6657 34.1405C29.8171 34.0477 29.9693 33.9632 30.1169 33.862C30.3341 33.7191 30.542 33.5641 30.7499 33.409C30.8706 33.3162 30.9931 33.2326 31.111 33.138C31.331 32.9616 31.5399 32.7741 31.7487 32.581C31.8248 32.5114 31.9065 32.4502 31.9817 32.3777C31.9891 32.3712 31.992 32.3601 31.9994 32.3526C37.1759 27.3934 37.352 19.1769 32.3928 14.0004ZM30.3064 31.3807C30.1375 31.5293 29.9629 31.6704 29.7866 31.8068C29.6827 31.8867 29.5787 31.9655 29.4719 32.0417C29.3039 32.1633 29.1331 32.2784 28.9595 32.3889C28.8332 32.4696 28.7042 32.5476 28.5742 32.6237C28.4108 32.7166 28.2447 32.8094 28.0767 32.9022C27.9281 32.9783 27.7768 33.0498 27.6246 33.1204C27.4724 33.1909 27.3044 33.2661 27.1401 33.332C26.9757 33.3979 26.8013 33.4601 26.6295 33.5176C26.4726 33.5715 26.3158 33.6272 26.157 33.6745C25.9714 33.7302 25.7774 33.7757 25.5852 33.8221C25.4348 33.8574 25.2863 33.8973 25.1341 33.927C24.9141 33.9697 24.6894 33.9994 24.4639 34.03C24.3358 34.0467 24.2086 34.07 24.0796 34.083C23.7231 34.1173 23.362 34.1377 22.9972 34.1377C22.6324 34.1377 22.2713 34.1173 21.9148 34.083C21.7858 34.07 21.6586 34.0467 21.5305 34.03C21.3049 33.9994 21.0803 33.9697 20.8603 33.927C20.708 33.8973 20.5595 33.8574 20.4092 33.8221C20.217 33.7757 20.0258 33.7293 19.8374 33.6745C19.6786 33.6272 19.5217 33.5715 19.3649 33.5176C19.1932 33.4582 19.0214 33.3979 18.8543 33.332C18.6872 33.2661 18.5294 33.1937 18.3697 33.1204C18.21 33.047 18.0662 32.9783 17.9177 32.9022C17.7497 32.815 17.5835 32.723 17.4201 32.6237C17.2902 32.5476 17.1611 32.4696 17.0349 32.3889C16.8613 32.2784 16.6905 32.1633 16.5225 32.0417C16.4157 31.9656 16.3118 31.8867 16.2078 31.8068C16.0314 31.6704 15.8569 31.5284 15.688 31.3807C15.6471 31.3501 15.61 31.3111 15.5701 31.2758C15.6116 28.1181 17.6402 25.3298 20.632 24.3184C22.1279 25.03 23.8647 25.03 25.3606 24.3184C28.3523 25.3298 30.3809 28.118 30.4224 31.2758C30.3834 31.3111 30.3463 31.3464 30.3064 31.3807ZM19.7593 17.4427C20.7644 15.6552 23.0282 15.021 24.8157 16.0261C26.6032 17.0311 27.2374 19.2949 26.2323 21.0824C25.8989 21.6755 25.4088 22.1656 24.8157 22.4991C24.8111 22.4991 24.8055 22.4991 24.7999 22.5046C24.5537 22.6416 24.2936 22.7518 24.0239 22.8333C23.9756 22.8472 23.931 22.8657 23.88 22.8778C23.7871 22.902 23.6897 22.9187 23.5941 22.9353C23.414 22.9668 23.2319 22.9851 23.0492 22.9901H22.9433C22.7606 22.9851 22.5785 22.9668 22.3984 22.9353C22.3056 22.9187 22.2072 22.902 22.1126 22.8778C22.0633 22.8657 22.0197 22.8472 21.9687 22.8333C21.699 22.7518 21.4388 22.6417 21.1927 22.5046L21.176 22.4991C19.3885 21.494 18.7542 19.2302 19.7593 17.4427ZM32.0691 29.4351C31.4735 26.6567 29.6439 24.3012 27.0992 23.0366C29.1794 20.7707 29.0287 17.2474 26.7627 15.1672C24.4968 13.0871 20.9735 13.2377 18.8934 15.5037C16.9378 17.634 16.9378 20.9064 18.8934 23.0366C16.3487 24.3013 14.5191 26.6567 13.9234 29.4351C10.3639 24.4212 11.5429 17.4711 16.5567 13.9116C21.5706 10.352 28.5208 11.531 32.0803 16.5449C33.4184 18.4297 34.1366 20.6842 34.1355 22.9957C34.1355 25.3052 33.413 27.5568 32.0691 29.4351Z" fill="#8D8D8D"/>
</svg>
